<?xml version="1.0" encoding="UTF-8" standalone="no"?>
<svg
   xmlns:dc="http://purl.org/dc/elements/1.1/"
   xmlns:cc="http://creativecommons.org/ns#"
   xmlns:rdf="http://www.w3.org/1999/02/22-rdf-syntax-ns#"
   xmlns:svg="http://www.w3.org/2000/svg"
   xmlns="http://www.w3.org/2000/svg"
   xmlns:xlink="http://www.w3.org/1999/xlink"
   xmlns:sodipodi="http://sodipodi.sourceforge.net/DTD/sodipodi-0.dtd"
   xmlns:inkscape="http://www.inkscape.org/namespaces/inkscape"
   version="1.1"
   height="80"
   width="80"
   id="svg3058"
   inkscape:version="0.48.1 r9760"
   sodipodi:docname="osm-notebook2.svg"
   inkscape:export-filename="/home/topi/scratchbox/mymoves/mymoves_48x48.png"
   inkscape:export-xdpi="54"
   inkscape:export-ydpi="54">
  <metadata
     id="metadata3091">
    <rdf:RDF>
      <cc:Work
         rdf:about="">
        <dc:title></dc:title>
      </cc:Work>
    </rdf:RDF>
  </metadata>
  <sodipodi:namedview
     pagecolor="#ffffff"
     bordercolor="#666666"
     borderopacity="1"
     objecttolerance="10"
     gridtolerance="10"
     guidetolerance="10"
     inkscape:pageopacity="0"
     inkscape:pageshadow="2"
     inkscape:window-width="1234"
     inkscape:window-height="775"
     id="namedview3089"
     showgrid="false"
     inkscape:zoom="1"
     inkscape:cx="42.310943"
     inkscape:cy="31.219386"
     inkscape:window-x="117"
     inkscape:window-y="50"
     inkscape:window-maximized="0"
     inkscape:current-layer="svg3058" />
  <defs
     id="defs3060">
    <linearGradient
       id="linearGradient5417">
      <stop
         id="stop5419"
         offset="0"
         style="stop-color:#f76e1e;stop-opacity:0.85496181;" />
      <stop
         id="stop5421"
         offset="1"
         style="stop-color:#a85609;stop-opacity:0.60000002;" />
    </linearGradient>
    <linearGradient
       id="linearGradient5697">
      <stop
         style="stop-color:#ffffff;stop-opacity:1;"
         offset="0"
         id="stop5699" />
      <stop
         style="stop-color:#ffffff;stop-opacity:0.29770991;"
         offset="1"
         id="stop5701" />
    </linearGradient>
    <linearGradient
       id="linearGradient5323">
      <stop
         style="stop-color:#4bf845;stop-opacity:0.85496181;"
         offset="0"
         id="stop5325" />
      <stop
         style="stop-color:#a3fb9e;stop-opacity:0.60000002;"
         offset="1"
         id="stop5327" />
    </linearGradient>
    <linearGradient
       id="hicg_overlay_grad"
       gradientUnits="userSpaceOnUse"
       x1="39.9995"
       y1="5.1816"
       x2="39.9995"
       y2="58.8019">
      <stop
         offset="0"
         style="stop-color:#FFFFFF"
         id="stop3063" />
      <stop
         offset="1"
         style="stop-color:#000000"
         id="stop3065" />
    </linearGradient>
    <filter
       id="hicg_drop_shadow">
      <feOffset
         in="SourceAlpha"
         dx="0"
         dy="4"
         id="feOffset3068" />
      <feGaussianBlur
         stdDeviation="4"
         id="feGaussianBlur3070" />
      <feColorMatrix
         type="matrix"
         values="1 0 0 0 0  0 1 0 0 0  0 0 1 0 0  0 0 0 0.5 0"
         result="shadow"
         id="feColorMatrix3072" />
      <feBlend
         in="SourceGraphic"
         in2="shadow"
         mode="normal"
         id="feBlend3074" />
    </filter>
    <linearGradient
       inkscape:collect="always"
       xlink:href="#linearGradient5323"
       id="linearGradient5337"
       x1="1"
       y1="40"
       x2="79"
       y2="40"
       gradientUnits="userSpaceOnUse" />
    <linearGradient
       inkscape:collect="always"
       xlink:href="#linearGradient5323"
       id="linearGradient3092"
       gradientUnits="userSpaceOnUse"
       x1="1"
       y1="40"
       x2="79"
       y2="40"
       gradientTransform="matrix(0,1,-1,0,80,0)" />
    <linearGradient
       inkscape:collect="always"
       xlink:href="#linearGradient5323"
       id="linearGradient3095"
       gradientUnits="userSpaceOnUse"
       x1="1"
       y1="40"
       x2="79"
       y2="40"
       gradientTransform="matrix(0,1,-1,0,80,0)" />
    <linearGradient
       inkscape:collect="always"
       xlink:href="#linearGradient5323"
       id="linearGradient3098"
       gradientUnits="userSpaceOnUse"
       x1="1"
       y1="40"
       x2="79"
       y2="40"
       gradientTransform="matrix(0,1,-1,0,80,0)" />
    <linearGradient
       inkscape:collect="always"
       xlink:href="#linearGradient5417"
       id="linearGradient5415"
       x1="45.785164"
       y1="53.041553"
       x2="69.650017"
       y2="53.041553"
       gradientUnits="userSpaceOnUse"
       gradientTransform="translate(1.0606602,-1.2374369)" />
    <filter
       inkscape:collect="always"
       id="filter5517">
      <feGaussianBlur
         inkscape:collect="always"
         stdDeviation="0.2655063"
         id="feGaussianBlur5519" />
    </filter>
    <filter
       inkscape:collect="always"
       id="filter5525">
      <feGaussianBlur
         inkscape:collect="always"
         stdDeviation="0.1122532"
         id="feGaussianBlur5527" />
    </filter>
  </defs>
  <path
     inkscape:connector-curvature="0"
     style="fill:url(#linearGradient3098);fill-opacity:1"
     d="M 40,79 C 11.107,79 1,68.895 1,40 1,11.105 11.107,1 40,1 68.894,1 79,11.105 79,40 79,68.895 68.894,79 40,79 z"
     id="hicg_background" />
  <path
     inkscape:connector-curvature="0"
     style="opacity:0.25;fill:url(#linearGradient3095);fill-opacity:1"
     d="M 79,39.999 C 79,11.105 68.894,1 40,1 11.107,1 1,11.105 1,39.999 1,68.896 11.107,79 40,79 68.894,79 79,68.896 79,39.999 z m -77.025,0 C 1.975,11.57 11.57,1.976 40,1.976 c 28.429,0 38.024,9.595 38.024,38.023 0,28.43 -9.596,38.024 -38.024,38.024 -28.43,0 -38.025,-9.594 -38.025,-38.024 z"
     id="hicg_highlight" />
  <path
     inkscape:connector-curvature="0"
     style="opacity:0.40000000000000002;fill:url(#linearGradient3092);fill-opacity:1.0"
     d="M 40,78.977 C 11.107,78.977 1,68.877 1,40 1,11.123 11.107,1.023 40,1.023 68.894,1.023 79,11.123 79,40 79,68.877 68.894,78.977 40,78.977 z"
     id="hicg_overlay" />
  <path
     style="fill:none;stroke:#4800d9;stroke-width:1;stroke-linecap:butt;stroke-linejoin:miter;stroke-miterlimit:4;stroke-opacity:1;stroke-dasharray:2,1;stroke-dashoffset:0"
     d="m 41.973279,48.080621 0.837412,3.861719 2.022662,2.435672 3.20004,2.319732 2.642539,2.583047 2.568896,3.009271"
     id="path3915"
     inkscape:connector-curvature="0"
     sodipodi:nodetypes="cccccc" />
  <path
     style="fill:none;stroke:#d90900;stroke-width:1;stroke-linecap:butt;stroke-linejoin:miter;stroke-miterlimit:4;stroke-opacity:1;stroke-dasharray:2,1;stroke-dashoffset:0"
     d="m 11.222366,61.971732 2.37104,-6.1682 1.4819,-2.26772 2.445137,-1.814176 1.555994,-2.630557 0.963236,-1.904885 1.037329,-1.995594 1.111424,-0.72567"
     id="path3915-0"
     inkscape:connector-curvature="0"
     sodipodi:nodetypes="cccccccc" />
  <path
     sodipodi:type="arc"
     style="opacity:0.41176471;fill:#eef7cd;fill-opacity:1;stroke:none;stroke-width:0.50000000000000000;stroke-miterlimit:4;stroke-opacity:1;stroke-dasharray:none;stroke-dashoffset:0;filter:url(#filter5517)"
     id="path3935"
     sodipodi:cx="40.216698"
     sodipodi:cy="40.40202"
     sodipodi:rx="17.412504"
     sodipodi:ry="16.970562"
     d="m 57.629202,40.40202 a 17.412504,16.970562 0 1 1 -34.825009,0 17.412504,16.970562 0 1 1 34.825009,0 z"
     transform="translate(-4.9497475,-7.7781746)" />
  <path
     style="fill:url(#linearGradient5415);fill-opacity:1;stroke:#1e1e10;filter:url(#filter5525);stroke-opacity:1;stroke-width:0.2;stroke-miterlimit:4;stroke-dasharray:none"
     d="M 46.845824,45.174991 66.468037,62.32233 70.710678,57.195806 50.027805,41.285904 z"
     id="path5407"
     inkscape:connector-curvature="0" />
  <path
     sodipodi:type="arc"
     style="opacity:0.93333333;fill:none;fill-opacity:1;stroke:#1e1e10;stroke-width:0.59999999999999998;stroke-miterlimit:4;stroke-opacity:0.97033899999999995;stroke-dasharray:none;stroke-dashoffset:0"
     id="path3935-4"
     sodipodi:cx="40.216698"
     sodipodi:cy="40.40202"
     sodipodi:rx="17.412504"
     sodipodi:ry="16.970562"
     d="m 57.629202,40.40202 a 17.412504,16.970562 0 1 1 -34.825009,0 17.412504,16.970562 0 1 1 34.825009,0 z"
     transform="translate(-5.2149124,-7.9549511)" />
  <path
     style="fill:none;stroke:#d90900;stroke-width:3;stroke-linecap:butt;stroke-linejoin:miter;stroke-miterlimit:4;stroke-opacity:1;stroke-dasharray:6,3;stroke-dashoffset:0"
     d="m 21.499366,39.143587 5.838883,-6.026755 3.649304,-2.215718 6.02135,-1.772575 3.831769,-2.570234 2.372045,-1.861202 3.615173,-1.59628"
     id="path3915-0-8"
     inkscape:connector-curvature="0"
     sodipodi:nodetypes="ccccccc" />
  <path
     style="fill:none;stroke:#d90900;stroke-width:1;stroke-linecap:butt;stroke-linejoin:miter;stroke-miterlimit:4;stroke-opacity:1;stroke-dasharray:2,1;stroke-dashoffset:0"
     d="m 50.201628,23.699577 3.785254,-4.046879 c 1.472048,-1.078313 3.015811,-2.867852 6.366914,-0.171717 l 3.261333,0.03966 2.981874,1.53994"
     id="path3915-0-89"
     inkscape:connector-curvature="0"
     sodipodi:nodetypes="ccccc" />
  <path
     style="fill:none;stroke:#4800d9;stroke-width:1;stroke-linecap:butt;stroke-linejoin:miter;stroke-miterlimit:4;stroke-opacity:1;stroke-dasharray:2,1;stroke-dashoffset:0"
     d="m 9.5670217,20.92293 2.9587323,1.563623 2.022662,2.435672 4.614254,0.551965"
     id="path3915-02"
     inkscape:connector-curvature="0"
     sodipodi:nodetypes="cccc" />
  <path
     style="fill:none;stroke:#4800d9;stroke-width:3;stroke-linecap:butt;stroke-linejoin:miter;stroke-miterlimit:4;stroke-opacity:1;stroke-dasharray:6,3;stroke-dashoffset:0"
     d="m 22.77934,23.906684 5.25683,6.159817 5.38142,2.612449 10.801438,10.98179"
     id="path3915-02-2"
     inkscape:connector-curvature="0"
     sodipodi:nodetypes="cccc" />
  <path
     style="fill:none;stroke:#d90900;stroke-width:1;stroke-linecap:butt;stroke-linejoin:miter;stroke-miterlimit:4;stroke-opacity:1;stroke-dasharray:2,1;stroke-dashoffset:0"
     d="m 13.785629,56.049713 3.608477,-1.748783 2.189007,-0.499954 5.273564,-0.04641 3.500538,0.551423 4.675546,0.746766 6.517408,0.832833 7.121832,-0.01856"
     id="path3915-0-0"
     inkscape:connector-curvature="0"
     sodipodi:nodetypes="cccccccc" />
</svg>
